<?xml version="1.0" encoding="utf-8"?>
<!-- Generator: Adobe Illustrator 24.2.3, SVG Export Plug-In . SVG Version: 6.00 Build 0)  -->
<svg version="1.1" id="Ebene_1" xmlns="http://www.w3.org/2000/svg" xmlns:xlink="http://www.w3.org/1999/xlink" x="0px" y="0px"
	 viewBox="0 0 1000 1000" style="enable-background:new 0 0 1000 1000;" xml:space="preserve">
<style type="text/css">
	.st0{fill:#FFFFFF;}
	.st1{fill:none;}
</style>
<g>
	<g>
		<path d="M493.7,712.2L493.7,712.2c-110.9,0-200.7-89.9-200.7-200.7v0c0-110.9,89.9-200.7,200.7-200.7h0
			c110.9,0,200.7,89.9,200.7,200.7v0C694.4,622.3,604.5,712.2,493.7,712.2z"/>
		<path class="st0" d="M493.7,712.7c-111,0-201.2-90.3-201.2-201.2s90.3-201.2,201.2-201.2c111,0,201.2,90.3,201.2,201.2
			C694.9,622.4,604.6,712.7,493.7,712.7z M493.7,311.2c-110.4,0-200.2,89.8-200.2,200.2c0,110.4,89.8,200.2,200.2,200.2h0
			c110.4,0,200.2-89.8,200.2-200.2C693.9,401,604.1,311.2,493.7,311.2z"/>
	</g>
	<g>
		<line class="st1" x1="413.9" y1="431.6" x2="573.4" y2="591.2"/>
		
			<rect x="486.2" y="398.6" transform="matrix(0.7071 -0.7071 0.7071 0.7071 -217.0407 498.8658)" class="st0" width="15" height="225.6"/>
	</g>
	<g>
		<line class="st1" x1="573.4" y1="431.6" x2="413.9" y2="591.2"/>
		
			<rect x="380.8" y="503.9" transform="matrix(0.7071 -0.7071 0.7071 0.7071 -217.0401 498.8352)" class="st0" width="225.6" height="15"/>
	</g>
</g>
</svg>
