<?xml version="1.0" encoding="utf-8"?>
<!-- Generator: Adobe Illustrator 24.2.3, SVG Export Plug-In . SVG Version: 6.00 Build 0)  -->
<svg version="1.1" id="Ebene_1" xmlns="http://www.w3.org/2000/svg" xmlns:xlink="http://www.w3.org/1999/xlink" x="0px" y="0px"
	 viewBox="0 0 1000 1000" style="enable-background:new 0 0 1000 1000;" xml:space="preserve">
<style type="text/css">
	.st0{fill:#FFFFFF;}
	.st1{fill:none;}
</style>
<g>
	<g>
		<path d="M493.67,712.17L493.67,712.17c-110.87,0-200.74-89.87-200.74-200.74v0c0-110.87,89.87-200.74,200.74-200.74h0
			c110.87,0,200.74,89.87,200.74,200.74v0C694.41,622.29,604.53,712.17,493.67,712.17z"/>
		<path class="st0" d="M493.67,712.67c-110.96,0-201.24-90.28-201.24-201.24s90.28-201.24,201.24-201.24
			c110.97,0,201.24,90.28,201.24,201.24C694.91,622.39,604.63,712.67,493.67,712.67z M493.67,311.18
			c-110.41,0-200.24,89.83-200.24,200.24c0,110.41,89.83,200.24,200.24,200.24h0c110.41,0,200.24-89.83,200.24-200.24
			C693.91,401.01,604.08,311.18,493.67,311.18z"/>
	</g>
	<g>
		<line class="st1" x1="413.89" y1="431.65" x2="573.44" y2="591.2"/>
		
			<rect x="486.17" y="398.61" transform="matrix(0.7071 -0.7071 0.7071 0.7071 -217.0407 498.8658)" class="st0" width="15" height="225.64"/>
	</g>
	<g>
		<line class="st1" x1="573.44" y1="431.65" x2="413.89" y2="591.2"/>
		
			<rect x="380.85" y="503.93" transform="matrix(0.7071 -0.7071 0.7071 0.7071 -217.0401 498.8352)" class="st0" width="225.64" height="15"/>
	</g>
</g>
</svg>
