<?xml version="1.0" encoding="utf-8"?>
<!-- Generator: Adobe Illustrator 24.2.3, SVG Export Plug-In . SVG Version: 6.00 Build 0)  -->
<svg version="1.1" id="Ebene_1" xmlns="http://www.w3.org/2000/svg" xmlns:xlink="http://www.w3.org/1999/xlink" x="0px" y="0px"
	 viewBox="0 0 1000 1000" style="enable-background:new 0 0 1000 1000;" xml:space="preserve">
<path d="M1000,1000c-13.3-86.7-27-153.6-40.8-200.8c-13.9-47.2-32.8-82.8-56.7-106.7c-23.9-23.9-55.8-35.8-95.8-35.8
	c-55.6,0-131.7,20.8-228.3,62.5C481.7,760.8,322.2,837.8,100,950L0,1000c182.2-100,330.8-197.8,445.8-293.3
	c115-95.5,197.8-182.8,248.3-261.7c50.6-78.9,75.8-148.9,75.8-210c0-53.3-17.5-95.3-52.5-125.8c-35-30.5-79.7-45.8-134.2-45.8
	c-81.1,0-165,33.1-251.7,99.2C245,228.6,170,332.2,106.7,473.3C43.3,614.5,7.8,790,0,1000V0h1000V1000z"/>
</svg>
