<?xml version="1.0" encoding="utf-8"?>
<!-- Generator: Adobe Illustrator 24.2.3, SVG Export Plug-In . SVG Version: 6.00 Build 0)  -->
<svg version="1.1" id="Ebene_1" xmlns="http://www.w3.org/2000/svg" xmlns:xlink="http://www.w3.org/1999/xlink" x="0px" y="0px"
	 viewBox="0 0 1000 1000" style="enable-background:new 0 0 1000 1000;" xml:space="preserve">
<path d="M367.5,361.7C426.9,417.2,465,445,481.7,445c7.8,0,12.8-5.8,15-17.5c2.2-11.7,3.3-31.9,3.3-60.8c0-62.2,9.2-118.9,27.5-170
	C545.8,145.6,591.7,100,665,60c73.3-40,185-60,335-60v1000H0c200-47.8,369.4-104.7,508.3-170.8c138.9-66.1,242.2-131.4,310-195.8
	C886.1,568.9,920,515,920,471.7c0-18.9-7-33.9-20.8-45C885.3,415.6,865,410,838.3,410c-50,0-115.6,19.7-196.7,59.2
	C560.5,508.6,465,572.5,355,660.8C245,749.2,126.7,862.2,0,1000V0C185.5,185.6,308,306.1,367.5,361.7z"/>
</svg>
