<?xml version="1.0" encoding="utf-8"?>
<!-- Generator: Adobe Illustrator 24.2.3, SVG Export Plug-In . SVG Version: 6.00 Build 0)  -->
<svg version="1.1" id="Ebene_1" xmlns="http://www.w3.org/2000/svg" xmlns:xlink="http://www.w3.org/1999/xlink" x="0px" y="0px"
	 viewBox="0 0 1000 1000" style="enable-background:new 0 0 1000 1000;" xml:space="preserve">
<path d="M568.3,62.5C455,87.5,372.2,112.8,320,138.3c-52.2,25.6-78.3,48.9-78.3,70c0,14.5,11.4,25.8,34.2,34.2
	c22.8,8.3,53.6,12.5,92.5,12.5c84.4,0,183.9-20.8,298.3-62.5C781.1,150.8,892.2,86.7,1000,0v1000c-11.1-87.8-27.2-153.3-48.3-196.7
	c-21.1-43.3-42.2-65-63.3-65c-11.1,0-20.3,5.6-27.5,16.7c-7.2,11.1-10.8,25.6-10.8,43.3c0,32.2,12.2,66.7,36.7,103.3
	c24.4,36.7,62.2,69.5,113.3,98.3H0c194.4,0,361.4-28.3,500.8-85c139.4-56.7,244.7-125,315.8-205c71.1-80,106.7-152.8,106.7-218.3
	c0-33.3-9.7-59.7-29.2-79.2c-19.5-19.4-48.1-29.2-85.8-29.2c-81.1,0-190.8,49.2-329.2,147.5S181.1,785.6,0,1000V0
	c30,157.8,58.6,287.5,85.8,389.2c27.2,101.7,51.7,175.6,73.3,221.7c21.7,46.1,39.2,69.2,52.5,69.2c6.7,0,11.9-6.1,15.8-18.3
	c3.9-12.2,5.8-28.9,5.8-50c0-45.6-8.3-102.8-25-171.7c-16.7-68.9-42.5-142.2-77.5-220C95.8,142.2,52.2,68.9,0,0h1000
	C825.5,16.7,681.7,37.5,568.3,62.5z"/>
<path d="M1084.9,462.5c2.7,2.5,4.4,3.8,5.2,3.8c0.4,0,0.6-0.3,0.7-0.8c0.1-0.5,0.2-1.5,0.2-2.8c0-2.8,0.4-5.4,1.3-7.8
	c0.8-2.3,2.9-4.4,6.3-6.2c3.3-1.8,8.4-2.7,15.3-2.7v45.6h-45.6c9.1-2.2,16.8-4.8,23.2-7.8c6.3-3,11-6,14.1-8.9
	c3.1-2.9,4.6-5.4,4.6-7.4c0-0.9-0.3-1.5-1-2.1c-0.6-0.5-1.6-0.8-2.8-0.8c-2.3,0-5.3,0.9-9,2.7c-3.7,1.8-8.1,4.7-13.1,8.7
	c-5,4-10.4,9.2-16.2,15.5V446C1076.6,454.4,1082.2,459.9,1084.9,462.5z"/>
<path d="M1274.1,446c-0.6-4-1.2-7-1.9-9.2c-0.6-2.2-1.5-3.8-2.6-4.9c-1.1-1.1-2.5-1.6-4.4-1.6c-2.5,0-6,0.9-10.4,2.8
	c-4.4,1.9-11.7,5.4-21.8,10.5l-4.6,2.3c8.3-4.6,15.1-9,20.3-13.4c5.2-4.4,9-8.3,11.3-11.9c2.3-3.6,3.5-6.8,3.5-9.6
	c0-2.4-0.8-4.3-2.4-5.7c-1.6-1.4-3.6-2.1-6.1-2.1c-3.7,0-7.5,1.5-11.5,4.5c-4,3-7.4,7.7-10.3,14.2c-2.9,6.4-4.5,14.4-4.9,24v-45.6
	h45.6V446z"/>
</svg>
