<?xml version="1.0" encoding="utf-8"?>
<!-- Generator: Adobe Illustrator 27.0.1, SVG Export Plug-In . SVG Version: 6.00 Build 0)  -->
<svg version="1.1" id="Ebene_1" xmlns="http://www.w3.org/2000/svg" xmlns:xlink="http://www.w3.org/1999/xlink" x="0px" y="0px"
	 viewBox="0 0 300 300" style="enable-background:new 0 0 300 300;" xml:space="preserve">
<path d="M155.1,266.8c-6.5-19.5,4.1-44.4,21.6-52.5c24.8-12.2,37.1-9.4,53.3-33.8c11.8-17.9,13.4-41.1,0-57.8
	c-7.3-9.8-18.7-15.5-30.9-19.5c-12.6-3.7-25.6-4.9-37.8-8.1c-29.7-7.3-33.8-33-17.1-50.9c18.7-18.7-6.9-24.8-12.6-4.5
	c-4.1,14.3-1.6,28.5-11,35c-6.9,4.9-24.8,4.1-21.6,19.9c4.1,12.6,23.2,9.8,33,8.9c13.4-1.2,24.8-2,36.6-1.6
	c16.7,0.4,35.8,5.7,48.9,16.3c28.9,22.8,14.6,77.3-36.2,86.7c-17.9,4.5-38.7,0.4-54.6-10.2c-24-16.7-37.8-61-55.8-55.8
	c-13.4,5.3-10.2,22.4,2.4,31.7c13.4,11.4,30.9,15.9,45.2,25.2c23.2,16.7,33.8,49.2,20.3,74.9c-17.5,32.1-63.9,38.7-97.3,9.4
	c-20.8-17.9-30.9-50.9-17.9-75.3c7.7-14.3,25.2-25.2,41.5-20c11.4,4.9,17.5,16.3,20.8,27.7c6.5,20,4.9,41.1,16.7,50.9
	c10.2,9.8,26.5,4.9,28.5-17.5c0.8-16.3-6.1-33-19.1-43.5c-18.7-15.5-47.2-17.9-61.5-38.3C33,138.6,55,105.6,81.4,112.6
	c10.6,2,19.1,11,24.8,20.3c9.4,13.8,15.5,29.3,25.6,43.2c23.6,32.1,61.9,26.4,71.2-4.5c6.1-17.1-0.8-37.8-15.5-49.2
	c-13.4-10.6-31.4-12.6-48.4-11.8c-17.5,0.8-34.6,3.7-50.9,1.2c-9.4-1.2-18.7-4.5-25.2-11.8c-5.7-7.3-7.3-18.3-0.8-25.2
	c8.6-9,24.8-3.7,35.8-10.2c11-6.1,12.6-22,18.3-33.8c7.7-16.3,24.8-28.5,43.2-29.7c29.7-1.2,38.7,27.3,12.2,45.6
	c-4.9,3.2-10.2,6.5-14.7,10.6c-11.8,10.6-8.9,24.4,4.1,30.1c16.7,7.3,65.5,4.5,95.2,37.5c31.3,30.9,43.5,119.3-19.1,158.7
	C206,303.5,166.5,298.2,155.1,266.8z"/>
</svg>
