<?xml version="1.0" encoding="utf-8"?>
<!-- Generator: Adobe Illustrator 27.0.1, SVG Export Plug-In . SVG Version: 6.00 Build 0)  -->
<svg version="1.1" id="Ebene_1" xmlns="http://www.w3.org/2000/svg" xmlns:xlink="http://www.w3.org/1999/xlink" x="0px" y="0px"
	 viewBox="0 0 300 300" style="enable-background:new 0 0 300 300;" xml:space="preserve">
<path d="M163.9,262.9c0-19.3,15.6-48.2,38.9-87.2c3.3-5.9,6.3-11.1,8.9-15.6c2.2-4.1,3-6.3,2.2-6.3c-1.1,0-3,2.2-6.3,6.7
	c-3.3,4.8-7.1,10.4-11.1,16.7c-25.6,38.9-46.7,68.6-69.3,84.9c-15.2,10.7-40.8,18.2-64.5,18.2c-36,0-62.7-14.8-62.7-44.9
	c0-11.9,5.9-23,17.8-33.7c23.7-20.8,52.3-34.1,94.9-51.9c11.5-4.8,20-8.2,24.9-10.7c4.8-2.6,6.7-4.5,5.6-5.6
	c-1.1-1.1-4.1-0.7-9.6,1.1c-5.6,1.9-14.5,5.6-26.3,11.1c-34.1,14.8-55.2,23.4-70.1,23.4c-9.3,0-13.7-3.7-13.7-11.5
	c0-8.5,5.2-16.3,15.2-23c20-13.3,47.1-21.5,96-33.7c27.8-7.4,50.1-13.7,66.7-19.3c33-10.8,59.3-27.1,59.3-49.3c0-5.6-3-8.2-8.9-8.2
	c-8.5,0-21.1,4.1-37.8,12.6c-16.7,8.5-40,21.1-69.7,37.8c-26.7,15.2-47.8,27.1-63.8,34.9S53,121.3,45.6,121.3
	c-2.6,0-4.5-0.4-5.6-1.5c-1.5-1.9-2.2-3.7-2.2-5.6c0-6.3,5.6-14.1,16.7-22.6c11.1-8.5,26.7-19.3,47.1-31.9
	c16.7-10.7,28.5-18.5,35.6-24.1c7.1-5.6,9.3-9.3,6.7-11.9c-0.7-0.7-1.9-1.1-3-1.1c-3,0-7.1,1.9-12.6,5.9
	c-5.6,4.1-13.7,10.4-24.9,19.7C69.7,76,48.6,92,31.1,92c-5.2,0-9.6-1.8-13-5.2c-2.2-2.6-3.3-5.2-3.3-7.8c0-7.8,8.2-16.3,24.5-25.6
	c32.6-18.2,82.3-33.7,100.1-33.7c2.6,0,4.5,0.4,5.2,1.1c1.9,1.9,3,4.1,3,6.3c0,6.3-5.6,13.7-16.3,22.3c-11.1,8.9-26.3,19.6-46,32.3
	C70.5,91.6,59.7,99,53,103.8c-7,5.2-10.4,9.3-10.4,12.2c0,2.6,3,2.2,8.5-1.1c5.6-3,14.8-8.9,28.6-18.2
	c20.8-14.1,39.7-26.3,57.1-36.7c34.1-20.4,77.5-39.3,111.6-39.3c15.9,0,24.1,8.9,24.1,26.7c0,37.5-31.5,99.7-74.9,179.5
	c-8.5,15.2-14.5,26.3-18.2,33.7c-3.7,7.4-4.8,11.1-3.3,11.1c1.5,0,3-1.1,4.8-3.7c1.5-2.6,3.7-7.1,7.1-13.7
	c6.3-13.7,13.3-25.6,20.4-36c14.5-20.8,40.1-40.4,77.1-40.4c9.6,0,14.5,3,14.5,8.5c0,37.1-77.1,92.7-118.7,92.7
	C169.8,279.2,163.9,273.7,163.9,262.9z M30.8,272.2c11.1,0,31.1-11.5,60.4-34.1C149.4,192.8,208,129.8,208,104.9
	c0-5.6-5.6-8.2-17-8.2c-56.4,0-166.9,22.6-165,59.7c0,1.1,1.5,1.9,4.1,1.9c6.3,0,24.5-4.5,53.8-13.7c16.7-4.8,29.7-8.5,38.6-11.1
	c8.5-2.2,15.2-3.3,20-3.3c2.2,0,3.7,0.4,4.8,1.5c1.1,1.8-1.1,5.2-7,10.4c-5.9,5.6-15.2,13-27.8,23c-17.8,14.1-32.6,26.3-44.1,36.3
	c-23.7,20.4-44.9,44.9-44.9,63C23.4,269.6,26,272.2,30.8,272.2z"/>
</svg>
