<?xml version="1.0" encoding="utf-8"?>
<!-- Generator: Adobe Illustrator 27.0.1, SVG Export Plug-In . SVG Version: 6.00 Build 0)  -->
<svg version="1.1" id="Ebene_1" xmlns="http://www.w3.org/2000/svg" xmlns:xlink="http://www.w3.org/1999/xlink" x="0px" y="0px"
	 viewBox="0 0 300 300" style="enable-background:new 0 0 300 300;" xml:space="preserve">
<path d="M163.4,298.1c-35.7,6.8-71.9-15.1-80.7-52.7c-9.8-41.6,18.7-84.9,60.7-93.8c14.9-3.8,31.9-2.1,44.2,6.4
	c45,28.5,23.8,104.5-27.6,91.3c-13.2-3.4-28.5-13.6-42.5-5.1c-15.3,9.3-4.3,30.6,3.8,36.1c18.3,14,42.4,6.7,54.8,0.4
	c31.8-16.1,51.2-50.6,60.3-83.6c5.5-19.9,11.9-61.6,8.5-85.3c-2.1-31-31.4-40.8-54.8-17.4c-19.1,19.1-27.6,52.4-56.9,55.6
	c-15.7,1.7-30.5-8.6-33.5-24.2c-3-15.3,5.9-31.4,17.8-41.2c12.3-9.3,29-14.8,35.2-29.3c5.1-11.9,0-26.7-10.2-34.4
	C126.9,9,102,13.4,90.3,28.9c-5.1,6.8-7.6,15.3-7.6,23.8c-2.1,27.6,7.6,54.5,12.7,81.1c3,15.3,1.9,31.3-3.4,46.3
	c-13.2,36.9-52,37.8-68.3,0.8C5.9,140.6,29.2,81.5,67.4,40c35.2-38.2,90-55.4,120.6-17c14.9,18.7,10.5,38.8-11.9,50.5
	c-17.8,9.4-38.1,11-52.2,28.9c-11,14-7.6,35.2,6.8,38.7c20.8,7.6,31.8-21.1,37.8-36.5c6.4-16.5,14.4-31.9,28.9-42.9
	c41.2-31.4,83.9-0.5,85.3,50.5c1.7,61.1-11,107-56.5,152.4C209.7,281.1,186.7,293.7,163.4,298.1L163.4,298.1z"/>
</svg>
