<?xml version="1.0" encoding="utf-8"?>
<!-- Generator: Adobe Illustrator 27.0.1, SVG Export Plug-In . SVG Version: 6.00 Build 0)  -->
<svg version="1.1" id="Ebene_1" xmlns="http://www.w3.org/2000/svg" xmlns:xlink="http://www.w3.org/1999/xlink" x="0px" y="0px"
	 viewBox="0 0 300 300" style="enable-background:new 0 0 300 300;" xml:space="preserve">
<path d="M87.6,131.3c7.9-6.8,13.3-11.9,16.6-15.1c3.2-3.2,4.3-5,3.6-5.8c-0.7-0.7-2.9,0.4-6.1,3.6c-3.6,3.2-7.6,6.9-12.3,11.2
	C60.6,151.5,41.1,168,25.2,168c-4,0-7.6-1.5-10.5-4.3c-3.6-3.6-5.4-7.9-5.4-12.6c0-22.7,34.6-50.5,79-81.9c5-3.6,9.4-6.8,12.6-9.4
	c3.2-2.5,4-3.6,2.9-3.6c-1.8,0-11.9,6.1-29.6,18.7c-17.7,12.3-31.7,21.6-42.2,28.1c-10.5,6.5-18.4,9.7-23.8,9.7
	c-1.4,0-2.5-0.4-3.6-1.5c-1.8-1.8-2.5-4.3-2.5-8.3c0-8.3,2.9-18.7,8.3-31.7c11.2-26,29.6-48.3,48-48.3c6.9,0,13,2.9,19.1,9
	c4,4,5.8,7.9,5.8,11.9c0,13.3-18,24.9-45.8,38.9c-9,4.7-15.1,8.3-18.4,10.8s-4.3,4.3-2.9,5.8c0.7,0.7,1.8,1.1,3.6,1.1
	c4,0,10.1-2.5,18-7.6c7.9-4.7,19.1-12.3,33.5-22.7c43.3-30.3,69.2-47.2,88.3-47.2c13,0,19.5,2.9,19.5,8.3c0,4.7-4,10.8-12.3,18
	c-8.3,7.6-19.1,16.2-32.4,26c-8.3,5.8-11.9,9-11.5,9.4c0,0.4,3.2-1.8,9.7-5.8c44.3-26.3,81.5-47.6,104.6-47.6
	c10.5,0,15.5,5,15.5,14.8c0,8.7-4.3,17.3-13.3,26c-17.7,17.7-39.3,29.6-75.4,48.3c-13.3,6.9-23.4,12.3-29.6,16.2
	c-6.1,4-9.4,6.8-9.4,9.4c0,1.5,2.2,1.1,6.9-1.4c4.7-2.2,11.9-6.1,21.6-11.9c47.2-27.4,82.9-46.5,111.4-46.5c23.4,0,35,14.4,35,43.3
	c0,24.2-14.8,47.6-44,70.3c-59.1,45.4-151.8,77.2-209.9,77.2C17.3,276.9,0,269,0,252.1C0,212.7,38.6,173.1,87.6,131.3z M22.4,267.9
	c17.7,0,48.7-9.7,92.7-29.6c89.1-40,177.4-77.9,177.4-113.9c0-9.7-6.5-14.4-19.8-14.4c-19.1,0-45.8,8.3-88.7,23.8
	c-17,5.8-29.6,10.1-37.9,12.6c-8.7,2.5-15.5,4-20.2,4c-2.5,0-4.3-0.4-5.4-1.4c-1.1-1.1-1.8-2.5-1.8-4c0-6.5,7.6-15.5,22.7-27.4
	c15.1-11.9,35.3-26,60.9-42.9c15.5-10.8,26.7-18.7,33.5-23.8c6.8-4.7,10.1-7.9,10.1-9.7c0-2.2-5-1.5-15.5,2.5
	c-10.5,4-26.3,10.5-48.3,19.8C159.7,73.2,143.1,80,132,84c-11.2,4-17,5-17,2.5c0-2.9,2.5-7.6,7.2-13.7c4.7-6.1,11.5-13.7,20.2-23.4
	c7.6-8.3,12.6-14.4,15.5-18c2.5-3.6,3.2-5.4,1.5-5.4c-6.1,0-21.6,9-45.8,27.4c-48.7,36.8-98.8,85.5-98.8,103.8c0,2.2,0.7,4,1.8,5
	c1.1,1.1,2.5,1.8,4,1.8c3.2,0,6.9-1.8,11.2-5.4c4-3.6,10.1-9.4,18.4-17.7c22-22.7,36.1-35,50.1-35c5,0,9.7,2.2,13.7,6.1
	c1.8,1.8,2.5,3.6,2.5,6.1c0,6.1-4,13.7-12.3,23.1c-8.3,9.4-21.3,22.4-38.2,38.6c-19.5,19.1-34.3,34.3-44,45.8
	C12.3,237.3,7.2,247,7.2,254.9c0,4,1.4,7.2,4,9.7C13.3,266.8,16.9,267.9,22.4,267.9z"/>
</svg>
