<?xml version="1.0" encoding="utf-8"?>
<!-- Generator: Adobe Illustrator 27.0.1, SVG Export Plug-In . SVG Version: 6.00 Build 0)  -->
<svg version="1.1" id="Ebene_1" xmlns="http://www.w3.org/2000/svg" xmlns:xlink="http://www.w3.org/1999/xlink" x="0px" y="0px"
	 viewBox="0 0 300 300" style="enable-background:new 0 0 300 300;" xml:space="preserve">
<path d="M0,145.2C2.5,74.2,55.2,18.6,120.5,2.3c31.9-7.3,44.9,17.2,18.4,39.2C119.7,57,86.6,69.7,90.3,97.9
	c1.2,11,11.9,14.7,19.2,7.7c7.7-6.1,10.6-17.6,13.9-26.5c8.2-24.5,18.8-42.9,42.9-56.8c20.8-11.8,46.6-16.7,61.7-0.4
	c11.8,13.1,9,28.6,4.1,45.3c-9.4,29.4-33.1,62.5-59.2,67.4c-35.5,8.6-47.8-29.8-25.7-52.3c15.1-15.5,30.2-9.8,49.8-22.9
	c8.2-4.5,13.5-14.3,10.6-22.9c-4.1-11-19.2-13.9-32.7-6.1c-33.5,17.1-39.6,39.6-44.5,75.9c-2.4,17.6-1.2,39.2-18.8,52.7
	c-16.3,11.8-40,9.8-52.7-6.1c-17.2-25.7-7.8-49.4,6.5-69c12.7-17.6,42.1-30.6,46.6-40.4c1.6-6.1-1.2-11-7.3-11
	c-15.9,0-78,28.6-66.2,123.7c9.4,76,73.9,139.3,153.1,120.1c33.9-7.3,58.8-35.5,49-64.5c-10.6-36.3-43.3-36.3-38.8-78
	c8.2-56.4,85.8-54.7,96.4,6.9c7.7,32.7-9.4,79.6-41.7,112.7c-40.4,38.4-94.7,54.3-145,40.8C44.5,275.1-1.6,214.7,0,145.2z"/>
</svg>
