<?xml version="1.0" encoding="utf-8"?>
<!-- Generator: Adobe Illustrator 27.0.1, SVG Export Plug-In . SVG Version: 6.00 Build 0)  -->
<svg version="1.1" id="Ebene_1" xmlns="http://www.w3.org/2000/svg" xmlns:xlink="http://www.w3.org/1999/xlink" x="0px" y="0px"
	 viewBox="0 0 24 24" style="enable-background:new 0 0 24 24;" xml:space="preserve">
<style type="text/css">
	.st0{clip-path:url(#SVGID_00000067934197732905639180000015989783086821133482_);}
	.st1{fill:#F7F9F9;}
</style>
<g>
	<defs>
		<rect id="SVGID_1_" width="24" height="24"/>
	</defs>
	<clipPath id="SVGID_00000170247259250325902170000004300952277453350273_">
		<use xlink:href="#SVGID_1_"  style="overflow:visible;"/>
	</clipPath>
	<g style="clip-path:url(#SVGID_00000170247259250325902170000004300952277453350273_);">
		<path class="st1" d="M20.5,3.5C18.3,1.3,15.3,0,12,0C8.7,0,5.7,1.3,3.5,3.5C1.3,5.7,0,8.7,0,12c0,3.3,1.3,6.3,3.5,8.5
			C5.7,22.7,8.7,24,12,24c3.3,0,6.3-1.3,8.5-3.5c2.2-2.2,3.5-5.2,3.5-8.5C24,8.7,22.7,5.7,20.5,3.5L20.5,3.5z M0.8,12.4h2.7
			c0,2.1,0.5,4,1.1,5.7H2.5C1.5,16.4,0.8,14.5,0.8,12.4L0.8,12.4z M16,11.6c0-2.1-0.2-4-0.5-5.7h3.1c0.7,1.6,1.2,3.6,1.2,5.7H16z
			 M8.7,11.6c0-2.1,0.2-4,0.5-5.7h5.5c0.3,1.6,0.5,3.6,0.5,5.7H8.7z M15.3,12.4c0,2.1-0.2,4-0.5,5.7H9.3c-0.3-1.6-0.5-3.6-0.5-5.7
			H15.3z M15.3,5.2c-0.1-0.6-0.3-1.1-0.4-1.6c-0.3-1.1-0.8-2-1.3-2.7c1.5,0.5,2.8,1.5,3.8,3c0.3,0.4,0.5,0.8,0.7,1.2H15.3L15.3,5.2z
			 M14.2,3.9c0.1,0.4,0.2,0.9,0.4,1.3H9.4c0.1-0.5,0.2-0.9,0.4-1.3C10.4,2,11.2,0.8,12,0.8C12.8,0.8,13.6,2,14.2,3.9z M9.1,3.7
			c-0.2,0.5-0.3,1-0.4,1.6H5.8C6,4.8,6.3,4.4,6.5,4c1-1.5,2.3-2.5,3.8-3C9.9,1.6,9.4,2.6,9.1,3.7L9.1,3.7z M8.5,6
			C8.2,7.6,8,9.6,8,11.6H4.2c0-2.1,0.5-4,1.2-5.7H8.5L8.5,6z M3.5,11.6H0.8c0.1-2.1,0.7-4,1.7-5.7h2.1C3.9,7.6,3.5,9.6,3.5,11.6
			L3.5,11.6z M4.2,12.4H8c0,2.1,0.2,4,0.5,5.7H5.4C4.7,16.4,4.3,14.5,4.2,12.4z M8.7,18.8c0.1,0.6,0.3,1.1,0.4,1.6
			c0.3,1.1,0.8,2,1.3,2.7c-1.5-0.5-2.8-1.5-3.8-3c-0.3-0.4-0.5-0.8-0.7-1.2H8.7L8.7,18.8z M9.8,20.1c-0.1-0.4-0.2-0.9-0.4-1.3h5.1
			c-0.1,0.5-0.2,0.9-0.4,1.3c-0.6,1.9-1.4,3.1-2.2,3.1C11.2,23.3,10.4,22,9.8,20.1z M14.9,20.3c0.2-0.5,0.3-1,0.4-1.6h2.9
			c-0.2,0.4-0.5,0.8-0.7,1.2c-1,1.5-2.3,2.5-3.8,3C14.1,22.4,14.6,21.5,14.9,20.3L14.9,20.3z M15.5,18c0.3-1.7,0.5-3.6,0.5-5.7h3.8
			c0,2.1-0.5,4-1.2,5.7H15.5z M20.5,12.4h2.7c-0.1,2.1-0.7,4-1.7,5.7h-2.1C20.1,16.4,20.5,14.4,20.5,12.4L20.5,12.4z M20.5,11.6
			c0-2.1-0.5-4-1.1-5.7h2.1c1,1.6,1.7,3.6,1.7,5.7H20.5L20.5,11.6z M20,4c0.4,0.4,0.7,0.8,1,1.2h-1.9c-0.3-0.6-0.6-1.1-1-1.7
			c-0.5-0.8-1.2-1.4-1.8-2C17.6,2.2,18.9,3,20,4L20,4z M4,4c1-1,2.3-1.9,3.7-2.5c-0.7,0.5-1.3,1.2-1.8,2c-0.4,0.5-0.7,1.1-1,1.7H3
			C3.3,4.8,3.7,4.4,4,4L4,4z M4,20c-0.4-0.4-0.7-0.8-1-1.2h1.9c0.3,0.6,0.6,1.1,1,1.7c0.5,0.8,1.2,1.4,1.8,2C6.4,21.8,5.1,21,4,20
			L4,20z M20,20c-1,1-2.3,1.9-3.7,2.5c0.7-0.5,1.3-1.2,1.8-2c0.4-0.5,0.7-1.1,1-1.7H21C20.7,19.2,20.3,19.6,20,20L20,20z"/>
	</g>
</g>
</svg>
