<?xml version="1.0" encoding="utf-8"?>
<!-- Generator: Adobe Illustrator 27.0.1, SVG Export Plug-In . SVG Version: 6.00 Build 0)  -->
<svg version="1.1" id="Ebene_1" xmlns="http://www.w3.org/2000/svg" xmlns:xlink="http://www.w3.org/1999/xlink" x="0px" y="0px"
	 viewBox="0 0 156.9 106.2" style="enable-background:new 0 0 156.9 106.2;" xml:space="preserve">
<style type="text/css">
	.st0{stroke:#000000;stroke-miterlimit:10;}
	.st1{clip-path:url(#SVGID_00000064323423112795703140000010706172515353149334_);}
</style>
<g>
	<g>
		<g>
			<path class="st0" d="M56.7,50.2v0.4c-0.1,1.6-0.6,3.5-1.5,5.6c-1,2.4-2.4,4.4-4.1,6.1c-1.6,1.6-3.7,3-6.2,4.1
				c-2.4,1-4.8,1.5-7.5,1.5c-2.4,0-4.8-0.5-7.5-1.5c-2.4-1.2-4.4-2.6-6.1-4.1c-1.8-2.1-3.2-4.1-4-6.1c-0.9-2.1-1.4-4-1.5-5.6v-0.4
				h2.4v0.2c0.4,4,2,7.4,4.9,10.3c3.4,3.3,7.3,5,11.9,5c4.5,0,8.5-1.7,12.1-5c2.9-2.9,4.5-6.3,4.9-10.3v-0.2H56.7z"/>
		</g>
		<g>
			<path class="st0" d="M55,41.8c0,0.9-0.3,1.7-0.9,2.3c-0.6,0.7-1.4,1-2.4,1c-0.9,0-1.6-0.3-2.3-1c-0.7-0.7-1-1.5-1-2.3
				c0-1,0.3-1.8,1-2.4c0.7-0.6,1.5-0.9,2.3-0.9c1,0,1.8,0.3,2.4,0.9S55,40.8,55,41.8z"/>
		</g>
		<g>
			<path class="st0" d="M26.7,41.8c0,0.9-0.3,1.7-0.9,2.3c-0.6,0.7-1.4,1-2.4,1c-0.9,0-1.7-0.3-2.3-1c-0.7-0.7-1-1.5-1-2.3
				c0-1,0.4-1.8,1-2.4c0.7-0.6,1.4-0.9,2.3-0.9c1,0,1.8,0.3,2.4,0.9C26.3,40,26.7,40.8,26.7,41.8z"/>
		</g>
	</g>
	<g>
		<g>
			<path class="st0" d="M138.9,55.8v0.4h-2.4V56c-0.4-4-2-7.4-4.8-10.3c-3.4-3.3-7.3-5-11.9-5c-4.5,0-8.5,1.7-12.1,5
				c-2.9,2.9-4.5,6.3-4.9,10.3v0.2h-2.3v-0.4c0.1-1.6,0.6-3.5,1.5-5.6c1-2.4,2.4-4.4,4.1-6.1c1.6-1.6,3.7-3,6.2-4.1
				c2.4-1,4.8-1.5,7.5-1.5c2.3,0,4.8,0.5,7.5,1.5c2.4,1.2,4.4,2.6,6.1,4.1c1.9,2.1,3.2,4.1,4.1,6.1
				C138.3,52.3,138.8,54.2,138.9,55.8z"/>
		</g>
		<g>
			<path class="st0" d="M108.9,64.6c0,1-0.3,1.8-1,2.4s-1.5,0.9-2.3,0.9c-1,0-1.8-0.3-2.4-0.9s-0.9-1.4-0.9-2.4
				c0-0.9,0.3-1.7,0.9-2.3c0.6-0.7,1.4-1,2.4-1c0.9,0,1.6,0.3,2.3,1C108.6,62.9,108.9,63.7,108.9,64.6z"/>
		</g>
		<g>
			<path class="st0" d="M137.3,64.6c0,1-0.4,1.8-1,2.4c-0.7,0.6-1.5,0.9-2.3,0.9c-1,0-1.8-0.3-2.4-0.9c-0.6-0.6-0.9-1.4-0.9-2.4
				c0-0.9,0.3-1.7,0.9-2.3c0.6-0.7,1.5-1,2.4-1s1.7,0.3,2.3,1C136.9,62.9,137.3,63.7,137.3,64.6z"/>
		</g>
	</g>
</g>
<g>
	<defs>
		<rect id="SVGID_1_" width="156.9" height="106.2"/>
	</defs>
	<clipPath id="SVGID_00000158029459033263237810000001579019393652920505_">
		<use xlink:href="#SVGID_1_"  style="overflow:visible;"/>
	</clipPath>
	<g style="clip-path:url(#SVGID_00000158029459033263237810000001579019393652920505_);">
		<path d="M7.9,49.1c6.3-7.7,14.4-12.2,23.9-13.3c3.8-0.5,7.4-0.7,10.9-0.5c3.1,0.2,5.7-0.9,8.1-3.1c2.3-2.2,3.6-5,3.8-8.6
			c0.2-2.5,0.5-5,1.3-7.4c1.4-4.5,4.3-8.4,8.8-11.8C69.1,1,74.8-0.4,81.4,0.1c6.3,1.1,11.3,3.8,14.9,8.1c3.8,4.1,5.7,8.8,5.9,14
			c0,1.4,0.2,2.9,0.4,4.1c0.5,2.7,1.8,4.7,3.6,6.3c2,1.6,4.3,2.3,7,2.5c4.1,0.2,8.1,0.4,12,0.7c7.2,0.9,13.6,3.6,19.2,8.3
			c5.6,4.7,9.5,10.8,11.5,18.1c2.1,10.4,0.7,19.6-4.3,27.3c-4.8,7.7-12,12.9-21.4,15.6c-9.1,2.1-17.6,1.1-25.7-3.4
			c-7.9-4.5-13.5-11.5-16.7-21.2c-1.1-3.2-1.6-6.5-1.4-9.9c0.2-4.5,0.2-8.8,0-13.3c0.2-5.2,0.2-10.2,0-15.4c-0.2-1.8-0.5-3.4-1.3-5
			c-1.6-3.1-4.3-4.5-7.9-4.1c-1.6,0.2-2.9,0.9-4.1,2c-1.3,1.1-2,2.5-2.3,4.3c-0.3,1.8-0.5,3.8-0.4,5.7l-0.2,26.6
			c-0.2,9.1-3.6,17.2-10.2,24.1c-6.7,6.8-14.7,10.4-24.6,10.8c-9.1-0.2-16.9-3.2-23.3-9c-6.3-5.7-10.2-12.7-11.8-21
			C-0.9,65.8,1.6,56.8,7.9,49.1L7.9,49.1z"/>
	</g>
</g>
</svg>
