<?xml version="1.0" encoding="utf-8"?>
<!-- Generator: Adobe Illustrator 26.5.0, SVG Export Plug-In . SVG Version: 6.00 Build 0)  -->
<svg version="1.1" id="Ebene_1" xmlns="http://www.w3.org/2000/svg" xmlns:xlink="http://www.w3.org/1999/xlink" x="0px" y="0px"
	 viewBox="0 0 188.2 106" style="enable-background:new 0 0 188.2 106;" xml:space="preserve">
<style type="text/css">
	.st0{fill:#FFFFFF;}
	.st1{stroke:#000000;stroke-miterlimit:10;}
</style>
<g>
	<path class="st0" d="M135.2,104.5c-16.2,0-31.4-7.6-41.1-20.5c-1.4,1.9-3,3.7-4.7,5.4c-9.7,9.7-22.7,15.1-36.4,15.1
		C24.6,104.5,1.5,81.4,1.5,53c0-13.8,5.4-26.7,15.1-36.4C26.3,6.9,39.2,1.5,53,1.5c13.8,0,26.7,5.4,36.4,15.1
		c1.7,1.7,3.2,3.5,4.7,5.4c1.4-1.9,3-3.7,4.7-5.4c9.7-9.7,22.6-15.1,36.4-15.1c13.8,0,26.7,5.4,36.4,15.1
		c9.7,9.7,15.1,22.7,15.1,36.4c0,13.8-5.4,26.7-15.1,36.4C161.9,99.1,149,104.5,135.2,104.5z"/>
	<path d="M135.2,3c13.8,0,26.3,5.6,35.4,14.6c9.1,9.1,14.6,21.6,14.6,35.4s-5.6,26.3-14.6,35.3c-9,9-21.5,14.7-35.4,14.7
		c-17,0-32.1-8.5-41.1-21.5c-1.7,2.5-3.6,4.8-5.8,6.9C79.3,97.4,66.8,103,53,103C25.4,103,3,80.6,3,53c0-13.8,5.6-26.3,14.6-35.4
		C26.7,8.6,39.2,3,53,3c13.8,0,26.3,5.6,35.3,14.6c2.1,2.1,4,4.4,5.8,6.9c1.7-2.5,3.6-4.8,5.8-6.9C108.9,8.6,121.4,3,135.2,3
		 M135.2,0C121,0,107.7,5.5,97.7,15.5c-1.3,1.3-2.5,2.6-3.6,4c-1.1-1.4-2.4-2.8-3.6-4C80.5,5.5,67.2,0,53,0
		C38.8,0,25.5,5.5,15.5,15.5C5.5,25.5,0,38.8,0,53c0,29.2,23.8,53,53,53c14.1,0,27.5-5.5,37.5-15.5c1.3-1.3,2.5-2.6,3.6-4
		c10,12.3,25.1,19.6,41.1,19.6c14.2,0,27.5-5.5,37.5-15.5c10-10,15.5-23.3,15.5-37.5c0-14.2-5.5-27.5-15.5-37.5
		C162.7,5.5,149.4,0,135.2,0L135.2,0z"/>
</g>
<g>
	<g>
		<g>
			<path class="st1" d="M72.2,50v0.4c-0.1,1.6-0.6,3.5-1.5,5.6c-1,2.4-2.4,4.4-4.1,6.1c-1.6,1.6-3.7,3-6.2,4.1
				c-2.4,1-4.8,1.5-7.5,1.5c-2.4,0-4.8-0.5-7.5-1.5c-2.4-1.2-4.4-2.6-6.1-4.1C37.5,60,36.1,58,35.3,56c-0.9-2.1-1.4-4-1.5-5.6V50
				h2.4v0.2c0.4,4,2,7.4,4.9,10.3c3.4,3.3,7.3,5,11.9,5c4.5,0,8.5-1.7,12.1-5c2.9-2.9,4.5-6.3,4.9-10.3V50H72.2z"/>
		</g>
		<g>
			<path class="st1" d="M70.5,41.6c0,0.9-0.3,1.7-0.9,2.3c-0.6,0.7-1.4,1-2.4,1c-0.9,0-1.6-0.3-2.3-1c-0.7-0.7-1-1.5-1-2.3
				c0-1,0.3-1.8,1-2.4c0.7-0.6,1.5-0.9,2.3-0.9c1,0,1.8,0.3,2.4,0.9C70.2,39.8,70.5,40.6,70.5,41.6z"/>
		</g>
		<g>
			<path class="st1" d="M42.2,41.6c0,0.9-0.3,1.7-0.9,2.3c-0.6,0.7-1.4,1-2.4,1c-0.9,0-1.7-0.3-2.3-1c-0.7-0.7-1-1.5-1-2.3
				c0-1,0.4-1.8,1-2.4c0.7-0.6,1.4-0.9,2.3-0.9c1,0,1.8,0.3,2.4,0.9C41.8,39.8,42.2,40.6,42.2,41.6z"/>
		</g>
	</g>
	<g>
		<g>
			<path class="st1" d="M154.4,55.6V56H152v-0.2c-0.4-4-2-7.4-4.8-10.3c-3.4-3.3-7.3-5-11.9-5c-4.5,0-8.5,1.7-12.1,5
				c-2.9,2.9-4.5,6.3-4.9,10.3V56H116v-0.4c0.1-1.6,0.6-3.5,1.5-5.6c1-2.4,2.4-4.4,4.1-6.1c1.6-1.6,3.7-3,6.2-4.1
				c2.4-1,4.8-1.5,7.5-1.5c2.3,0,4.8,0.5,7.5,1.5c2.4,1.2,4.4,2.6,6.1,4.1c1.9,2.1,3.2,4.1,4.1,6.1C153.8,52.1,154.3,54,154.4,55.6z
				"/>
		</g>
		<g>
			<path class="st1" d="M124.4,64.4c0,1-0.3,1.8-1,2.4c-0.7,0.6-1.5,0.9-2.3,0.9c-1,0-1.8-0.3-2.4-0.9c-0.6-0.6-0.9-1.4-0.9-2.4
				c0-0.9,0.3-1.7,0.9-2.3c0.6-0.7,1.4-1,2.4-1c0.9,0,1.6,0.3,2.3,1C124.1,62.7,124.4,63.5,124.4,64.4z"/>
		</g>
		<g>
			<path class="st1" d="M152.8,64.4c0,1-0.4,1.8-1,2.4c-0.7,0.6-1.5,0.9-2.3,0.9c-1,0-1.8-0.3-2.4-0.9c-0.6-0.6-0.9-1.4-0.9-2.4
				c0-0.9,0.3-1.7,0.9-2.3c0.6-0.7,1.5-1,2.4-1c0.9,0,1.7,0.3,2.3,1C152.4,62.7,152.8,63.5,152.8,64.4z"/>
		</g>
	</g>
</g>
</svg>
