<svg width="147" height="152" viewBox="0 0 147 152" fill="none" xmlns="http://www.w3.org/2000/svg">
<path d="M134.35 76C138.131 77.3029 141.184 79.6189 143.51 82.9484C145.837 86.1332 147 89.68 147 93.5886C147 99.0895 145.11 103.65 141.329 107.269C137.694 110.743 133.332 112.48 128.243 112.48C126.935 112.48 125.117 112.19 122.791 111.611C124.972 114.796 126.062 118.343 126.062 122.252C126.062 125.292 125.408 128.114 124.099 130.72C122.791 133.326 120.901 135.57 118.429 137.452C115.085 139.913 111.377 141.143 107.306 141.143C104.398 141.143 101.562 140.491 98.7997 139.189C96.1825 137.886 94.0015 136.004 92.2567 133.543C92.2567 138.609 90.3665 142.952 86.5861 146.571C82.951 150.19 78.589 152 73.5 152C68.411 152 64.049 150.19 60.4139 146.571C56.7789 142.952 54.8887 138.609 54.7433 133.543C52.9985 136.004 50.7448 137.886 47.9822 139.189C45.365 140.491 42.6024 141.143 39.6943 141.143C35.9139 141.143 32.2062 139.913 28.5712 137.452C26.0994 135.57 24.2092 133.326 22.9006 130.72C21.592 128.114 20.9377 125.292 20.9377 122.252C20.9377 118.343 22.1009 114.796 24.4273 111.611C21.8101 112.19 19.9199 112.48 18.7567 112.48C13.6677 112.48 9.23294 110.743 5.45252 107.269C1.81751 103.65 0 99.0895 0 93.5886C0 89.68 1.1632 86.1332 3.48961 82.9484C5.81602 79.6189 8.86943 77.3029 12.6498 76C8.86943 74.6971 5.81602 72.3811 3.48961 69.0516C1.1632 65.7221 0 62.1027 0 58.1942C0 52.838 1.89021 48.4227 5.67063 44.9484C9.45104 41.3294 13.8131 39.5199 18.7567 39.5199C19.9199 39.5199 21.8101 39.8095 24.4273 40.3886C22.1009 37.2038 20.9377 33.5847 20.9377 29.5314C20.9377 26.6361 21.592 23.8858 22.9006 21.2801C24.2092 18.5296 26.0994 16.2855 28.5712 14.5484C32.2062 12.0875 35.9139 10.8572 39.6943 10.8572C42.6024 10.8572 45.365 11.5086 47.9822 12.8114C50.7448 14.1143 52.9985 15.9962 54.7433 18.4572C54.8887 13.3905 56.7789 9.04776 60.4139 5.42872C64.049 1.80967 68.411 0 73.5 0C78.589 0 82.951 1.80967 86.5861 5.42872C90.3665 9.04776 92.2567 13.3905 92.2567 18.4572C94.0015 15.9962 96.1825 14.1143 98.7997 12.8114C101.562 11.5086 104.398 10.8572 107.306 10.8572C111.377 10.8572 115.085 12.0875 118.429 14.5484C120.901 16.2855 122.791 18.5296 124.099 21.2801C125.408 23.8858 126.062 26.6361 126.062 29.5314C126.062 33.44 124.972 37.059 122.791 40.3886C124.39 39.8095 126.208 39.5199 128.243 39.5199C132.315 39.5199 135.95 40.7505 139.148 43.2114C142.493 45.5276 144.819 48.6398 146.128 52.5484C146.709 54.2856 147 56.1675 147 58.1942C147 62.2475 145.837 65.9391 143.51 69.2686C141.329 72.4534 138.276 74.6971 134.35 76ZM90.0757 64.2745C89.0579 64.2745 88.1128 64.6363 87.2404 65.3601C86.5134 66.0839 86.1498 67.0249 86.1498 68.183C86.1498 69.1963 86.5134 70.1373 87.2404 71.0058C88.1128 71.7297 89.0579 72.0915 90.0757 72.0915C91.2389 72.0915 92.184 71.7297 92.911 71.0058C93.638 70.1373 94.0015 69.1963 94.0015 68.183C94.0015 67.0249 93.638 66.0839 92.911 65.3601C92.184 64.6363 91.2389 64.2745 90.0757 64.2745ZM56.9243 64.2745C55.9065 64.2745 54.9614 64.6363 54.089 65.3601C53.362 66.0839 52.9985 67.0249 52.9985 68.183C52.9985 69.1963 53.362 70.1373 54.089 71.0058C54.9614 71.7297 55.9065 72.0915 56.9243 72.0915C58.0875 72.0915 59.0326 71.7297 59.7596 71.0058C60.4866 70.1373 60.8502 69.1963 60.8502 68.183C60.8502 67.0249 60.4866 66.0839 59.7596 65.3601C59.0326 64.6363 58.0875 64.2745 56.9243 64.2745ZM93.3472 77.9543V78.1713C92.911 82.8037 91.0208 86.7848 87.6766 90.1144C83.4599 94.0229 78.7344 95.9771 73.5 95.9771C68.1202 95.9771 63.4674 94.0229 59.5415 90.1144C56.1973 86.7848 54.3071 82.8037 53.8709 78.1713V77.9543H51.0356V78.3886C51.181 80.2705 51.7626 82.442 52.7804 84.9029C53.7982 87.2191 55.3976 89.6077 57.5786 92.0686C59.6142 93.8058 62.0133 95.3981 64.776 96.8457C67.8294 98.0038 70.7374 98.583 73.5 98.583C76.5534 98.583 79.4614 98.0038 82.224 96.8457C85.1321 95.5429 87.5312 93.9505 89.4214 92.0686C91.457 90.0419 93.0564 87.6534 94.2196 84.9029C95.2374 82.442 95.819 80.2705 95.9644 78.3886V77.9543H93.3472Z" fill="black"/>
</svg>
